<svg id="Layer_1" data-name="Layer 1" xmlns="http://www.w3.org/2000/svg" viewBox="0 0 48 48"><defs><style>.cls-1{fill:#ff0;}</style></defs><title>arrow_circle_tight_60dp_FFFF00_FILL1_wght300_GRAD0_opsz48</title><path class="cls-1" d="M30.78,24,24,17.22,22.42,18.8l4.06,4.07H16.87v2.26h9.61L22.42,29.2,24,30.78ZM16.59,41.5a19,19,0,0,1-6-4.08A19.5,19.5,0,0,1,6.5,31.37a19,19,0,0,1,0-14.78A19,19,0,0,1,16.59,6.5,18.52,18.52,0,0,1,24,5a18.29,18.29,0,0,1,7.37,1.5,19.38,19.38,0,0,1,6.05,4.06,19,19,0,0,1,4.08,6A18.52,18.52,0,0,1,43,24a18.29,18.29,0,0,1-1.5,7.37A19.11,19.11,0,0,1,31.37,41.5a19,19,0,0,1-14.78,0Z"/></svg>