<svg id="Layer_1" data-name="Layer 1" xmlns="http://www.w3.org/2000/svg" viewBox="0 0 30 30"><defs><style>.cls-1{fill:#266d47;}</style></defs><title>Icon Social 211213</title><path class="cls-1" d="M16.26,24.81H12.43c0-.14,0-.29,0-.44v-8.9c0-.46,0-.46-.47-.46s-.82,0-1.23,0c-.09,0-.25-.14-.25-.22,0-1.2,0-2.39,0-3.65h1.1c.85,0,.84,0,.86-.85a11.62,11.62,0,0,1,.14-2.13,3.39,3.39,0,0,1,3.29-2.86c1.2-.08,2.41,0,3.65,0V8.57H17.75a4.51,4.51,0,0,0-.52,0,.79.79,0,0,0-.77.78c0,.5,0,1,0,1.51,0,.24.13.26.31.26.8,0,1.59,0,2.39,0h.41c-.08.91-.16,1.77-.24,2.63,0,.32-.08.63-.09,1s-.11.31-.34.3c-.73,0-1.46,0-2.18,0-.35,0-.43.12-.43.45,0,2.95,0,5.91,0,8.86C16.28,24.47,16.27,24.63,16.26,24.81Z"/></svg>