<svg id="Layer_1" data-name="Layer 1" xmlns="http://www.w3.org/2000/svg" viewBox="0 0 40 39.99"><defs><style>.cls-1{fill:#266d47;}</style></defs><title>266d47 - Icon Social 211213</title><path class="cls-1" d="M22.16,36.79H15.59c0-.25,0-.5,0-.75V20.8c0-.79,0-.79-.8-.79s-1.4,0-2.1,0c-.16,0-.44-.25-.44-.38,0-2.05,0-4.1,0-6.26h1.87c1.47,0,1.44,0,1.48-1.44a19.26,19.26,0,0,1,.23-3.65,5.82,5.82,0,0,1,5.65-4.89c2.05-.15,4.12,0,6.23,0V9H24.71c-.3,0-.6,0-.9,0a1.35,1.35,0,0,0-1.3,1.34c0,.86,0,1.72,0,2.59,0,.41.22.44.53.44h4.8c-.15,1.57-.28,3-.41,4.52,0,.54-.14,1.07-.15,1.61s-.2.54-.6.53c-1.24,0-2.49,0-3.73,0-.6,0-.74.19-.73.75,0,5.06,0,10.13,0,15.19C22.2,36.21,22.17,36.48,22.16,36.79Z"/></svg>