<svg id="Layer_1" data-name="Layer 1" xmlns="http://www.w3.org/2000/svg" viewBox="0 0 40 39.99"><defs><style>.cls-1{fill:#266d47;}</style></defs><title>266d47 - Icon Social 211213</title><path class="cls-1" d="M24.78,20m6.39-8.45a4.71,4.71,0,0,0-2.72-2.72,7.71,7.71,0,0,0-2.66-.49c-1.51-.07-2-.09-5.79-.09s-4.28,0-5.79.08a7.89,7.89,0,0,0-2.66.5A4.32,4.32,0,0,0,9.9,9.89a4.42,4.42,0,0,0-1.08,1.65,8.24,8.24,0,0,0-.49,2.66c-.07,1.51-.08,2-.08,5.79s0,4.28.08,5.8a8.37,8.37,0,0,0,.49,2.66A4.5,4.5,0,0,0,9.9,30.1a4.44,4.44,0,0,0,1.65,1.07,7.71,7.71,0,0,0,2.66.49c1.51.07,2,.09,5.79.09s4.28,0,5.79-.09a7.71,7.71,0,0,0,2.66-.49,4.73,4.73,0,0,0,2.72-2.72,8,8,0,0,0,.5-2.66c.07-1.52.08-2,.08-5.8s0-4.28-.08-5.79a7.89,7.89,0,0,0-.5-2.66Zm-3.52,2.52a1.72,1.72,0,1,1,1.72-1.72,1.72,1.72,0,0,1-1.72,1.72Zm0,0,6.6,11.84a10.35,10.35,0,0,1-.67,3.48,7.31,7.31,0,0,1-4.19,4.2,10.63,10.63,0,0,1-3.48.66c-1.53.07-2,.09-5.91.09s-4.38,0-5.91-.09a10.63,10.63,0,0,1-3.48-.66,7,7,0,0,1-2.54-1.66,6.93,6.93,0,0,1-1.65-2.54,10.35,10.35,0,0,1-.67-3.48c-.07-1.53-.08-2-.08-5.91s0-4.38.08-5.91a10.46,10.46,0,0,1,.67-3.48,7.29,7.29,0,0,1,4.19-4.19,10.6,10.6,0,0,1,3.48-.67c1.53-.06,2-.08,5.91-.08s4.38,0,5.91.09a10.38,10.38,0,0,1,3.48.66,7.29,7.29,0,0,1,4.19,4.19,10.46,10.46,0,0,1,.67,3.48c.07,1.53.08,2,.08,5.91s0,4.38-.08,5.91Zm0,0M20,12.63A7.36,7.36,0,1,0,27.36,20,7.36,7.36,0,0,0,20,12.63Zm0,12.14A4.78,4.78,0,1,1,24.78,20,4.78,4.78,0,0,1,20,24.77Z"/></svg>