<?xml version="1.0" encoding="utf-8"?>
<!-- Generator: Adobe Illustrator 22.0.1, SVG Export Plug-In . SVG Version: 6.00 Build 0)  -->
<svg version="1.1" id="Layer_1" xmlns="http://www.w3.org/2000/svg" xmlns:xlink="http://www.w3.org/1999/xlink" x="0px" y="0px"
	 viewBox="0 0 40 40" style="enable-background:new 0 0 40 40;" xml:space="preserve">
<style type="text/css">
	.st0{fill:#FFFFFF;}
</style>
<title>phone_in_talk_40dp_white_FILL0_wght300_GRAD0_opsz40</title>
<g>
	<path class="st0" d="M16.5,9.4c0,1.1,0,2.2,0,3.2c0,0.6-0.2,1-0.7,1.3c-0.4,0.3-0.9,0.5-1.4,0.7c-0.4,0.2-0.7,0.3-1.1,0.4
		c-0.6,0.2-0.9,0.6-0.8,1.2c0.1,0.6,0.2,1.3,0.4,1.9c0.9,2.5,2,4.9,3.6,7.1c0.5,0.7,1.1,1.4,1.8,1.8c0.7,0.4,1.4,0.5,2.2,0.2
		c0.8-0.3,1.5-0.7,2.3-1c0.8-0.4,1.2-0.3,1.8,0.3c1.3,1.4,2.6,2.9,4,4.4c0.7,0.7,0.5,1.5-0.2,2.1c-1.1,1-2.4,1.6-3.8,1.8
		c-3.2,0.6-6-0.2-8.5-2.1c-2.1-1.6-3.7-3.7-5-6c-1.3-2.3-2.5-4.6-3.3-7.2C7,17,6.6,14.4,6.9,11.6c0.2-1.5,0.6-2.9,1.5-4.1
		c1.8-2.1,4.1-3.1,6.8-2.6c0.8,0.1,1.1,0.5,1.1,1.3C16.4,7.3,16.4,8.3,16.5,9.4C16.4,9.4,16.5,9.4,16.5,9.4z M32.6,13.9
		c-1.5-4-4.3-6.6-8.5-7.7C23.2,6.1,22.3,6,21.4,6c-0.4,0-0.7,0.3-0.7,0.6c0,0.4,0.2,0.7,0.7,0.8c0.1,0,0.2,0,0.3,0
		c3,0.1,5.5,1.3,7.5,3.5c3.3,3.7,3.4,9.5,0.2,13.4c-0.3,0.3-0.6,0.6-0.8,0.9c-0.3,0.3-0.3,0.7,0,1c0.3,0.3,0.7,0.3,1,0
		c0.1-0.1,0.1-0.1,0.2-0.2c2.2-2.3,3.4-5.1,3.4-8C33.2,16.4,33,15.1,32.6,13.9z M23.2,10c-0.6-0.1-1.2-0.2-1.8-0.2
		c-0.4,0-0.7,0.3-0.7,0.7c0,0.4,0.3,0.7,0.7,0.7c0.1,0,0.3,0,0.4,0c1.8,0.1,3.4,0.8,4.6,2.2c1.5,1.7,1.9,3.6,1.5,5.8
		c-0.3,1.1-0.8,2.1-1.6,2.9c-0.1,0.1-0.1,0.2-0.2,0.2c-0.3,0.4-0.3,0.8,0,1.1c0.3,0.3,0.7,0.2,1.1-0.1c1.5-1.6,2.3-3.4,2.3-5.3
		C29.3,14.1,26.8,10.8,23.2,10z M21.6,13.7c-0.5,0-0.8,0.2-0.9,0.6c0,0.4,0.2,0.7,0.8,0.8c0.1,0,0.1,0,0.2,0
		c1.4,0.1,2.4,1.2,2.4,2.6c0,0.7-0.2,1.3-0.7,1.9c-0.3,0.4-0.3,0.8,0,1.1c0.3,0.3,0.7,0.2,1.1-0.1c0.7-0.8,1.1-1.7,1.1-2.6
		C25.4,15.4,23.7,13.7,21.6,13.7z"/>
</g>
</svg>
