<svg id="Layer_1" data-name="Layer 1" xmlns="http://www.w3.org/2000/svg" viewBox="0 0 30 30"><defs><style>.cls-1{fill:#266d47;}</style></defs><title>Icon Social 211213</title><path class="cls-1" d="M15,6a11.85,11.85,0,0,1,4.37.81,9.77,9.77,0,0,1,3.53,2.3,7.46,7.46,0,0,1,1.87,3,6.65,6.65,0,0,1-.72,5.6A10.56,10.56,0,0,1,23,19.16a17.8,17.8,0,0,1-2.33,2.18,38.75,38.75,0,0,1-3.85,2.73c-.5.31-1,.61-1.53.88a2.6,2.6,0,0,1-.65.26.67.67,0,0,1-.2,0,.29.29,0,0,1-.33-.3,2.31,2.31,0,0,1,0-.37c0-.29.1-.58.15-.88a2.55,2.55,0,0,0,0-.73.58.58,0,0,0-.29-.43,1.64,1.64,0,0,0-.67-.24A13.26,13.26,0,0,1,11,21.72,10.41,10.41,0,0,1,7.76,19.9a8.24,8.24,0,0,1-2.12-2.64,7,7,0,0,1-.65-2A7.06,7.06,0,0,1,5,13,7.22,7.22,0,0,1,6.43,9.88a9.22,9.22,0,0,1,3.2-2.62A11.41,11.41,0,0,1,12.8,6.19,12.6,12.6,0,0,1,15,6ZM15,13.9h0L15,14l1.54,2.11c.15.19.29.4.44.59a.54.54,0,0,0,.95-.35v-4a.54.54,0,0,0-.3-.45.49.49,0,0,0-.52,0,.52.52,0,0,0-.24.47v2.44l-.06-.07-1.68-2.29L14.84,12a.5.5,0,0,0-.52-.2.48.48,0,0,0-.41.39.65.65,0,0,0,0,.2v3.95a.49.49,0,0,0,.33.47.47.47,0,0,0,.56-.11A.52.52,0,0,0,15,16.3V13.9Zm4.78-1H21.2a.52.52,0,0,0,.5-.35.53.53,0,0,0-.5-.7h-2a.54.54,0,0,0-.53.4.68.68,0,0,0,0,.2v4a.51.51,0,0,0,.34.46.72.72,0,0,0,.25,0h1.87l.15,0a.52.52,0,0,0-.08-1H19.73v-1H21.2a.53.53,0,0,0,.53-.55.55.55,0,0,0-.55-.51H19.73Zm-10.15,3V12.44a.62.62,0,0,0,0-.13.52.52,0,0,0-1-.17.78.78,0,0,0,0,.26v3.87a.66.66,0,0,0,0,.14.5.5,0,0,0,.34.43.91.91,0,0,0,.23,0H11l.16,0a.52.52,0,0,0,.42-.63.53.53,0,0,0-.52-.41H9.58Zm3.55-1.48v-2a.53.53,0,0,0-1-.15.59.59,0,0,0,0,.23v4a.52.52,0,0,0,.34.47.53.53,0,0,0,.56-.12.56.56,0,0,0,.16-.41Z"/></svg>