<?xml version="1.0" encoding="UTF-8"?>
<svg id="Layer_1" xmlns="http://www.w3.org/2000/svg" viewBox="0 0 1118.39 450.75">
  <defs>
    <style>
      .cls-1 {
        fill: #fff;
      }
    </style>
  </defs>
  <path class="cls-1" d="M230.22,150.25h-79.97v150.25h43.5v-47h36.47c28.51,0,51.62-23.11,51.62-51.62s-23.11-51.62-51.62-51.62ZM161.25,296.5h-7v-142.25h7v142.25ZM175.5,296.5h-7v-142.25h7v142.25ZM189.75,296.5h-7v-142.25h7v142.25ZM323.08,208.4c-2.65-1.15-4.7-2.75-6.15-4.79-1.45-2.04-2.17-4.37-2.17-6.98v-18.23h12.06v17.02c0,1.92.42,3.37,1.27,4.33.84.96,2.25,1.44,4.22,1.44s3.33-.48,4.19-1.44c.86-.96,1.3-2.4,1.3-4.33v-17.02h12.12v18.23c0,2.62-.72,4.94-2.17,6.98-1.45,2.04-3.51,3.64-6.18,4.79-2.67,1.15-5.76,1.73-9.25,1.73s-6.57-.58-9.22-1.73ZM359.43,209.5c-2.61-.42-4.68-1.06-6.21-1.9v-8.54c1.69.96,3.67,1.75,5.94,2.37,2.27.62,4.27.92,6,.92,3.17,0,4.76-.56,4.76-1.67,0-.54-.4-.99-1.21-1.36-.8-.36-2.25-.86-4.34-1.47-1.05-.31-1.69-.5-1.93-.58-3.42-1.08-5.88-2.35-7.39-3.81-1.51-1.46-2.26-3.46-2.26-6,0-3.19,1.31-5.65,3.92-7.36,2.61-1.71,6.15-2.57,10.61-2.57,2.57,0,5.04.23,7.42.69,2.37.46,4.24,1.06,5.61,1.79v8.6c-1.25-.85-2.86-1.55-4.85-2.11-1.99-.56-3.85-.84-5.58-.84-3.13,0-4.7.6-4.7,1.79,0,.58.41,1.05,1.24,1.41.82.37,2.16.8,4.01,1.3l2.47.69c2.53.77,4.48,1.62,5.85,2.54,1.37.92,2.31,1.98,2.83,3.17.52,1.19.78,2.64.78,4.33,0,2.89-1.28,5.15-3.83,6.78-2.55,1.63-6.38,2.45-11.48,2.45-2.49,0-5.04-.21-7.66-.63ZM351.41,168.13h29.72v7.16h-29.72v-7.16ZM393.61,208.4c-2.65-1.15-4.7-2.75-6.15-4.79-1.45-2.04-2.17-4.37-2.17-6.98v-18.23h12.06v17.02c0,1.92.42,3.37,1.27,4.33.84.96,2.25,1.44,4.22,1.44s3.33-.48,4.19-1.44c.86-.96,1.3-2.4,1.3-4.33v-.92h-5.31v-7.91h5.31v-8.19h12.12v8.19h2.65v7.91h-2.65v2.13c0,2.62-.72,4.94-2.17,6.98-1.45,2.04-3.51,3.64-6.18,4.79-2.67,1.15-5.76,1.73-9.25,1.73s-6.57-.58-9.22-1.73ZM403.65,173.87c-1.1-.94-1.66-2.34-1.66-4.18v-6h10.79v3.23c0,.81.44,1.21,1.33,1.21h12.54v7.16h-18.09c-2.17,0-3.81-.47-4.91-1.41ZM425.38,178.4h11.39v2.94c1.29-1.19,2.85-2.12,4.7-2.8,1.85-.67,3.72-1.01,5.61-1.01,4.18,0,7.29,1.03,9.34,3.09,2.05,2.06,3.07,4.84,3.07,8.34v20.31h-12.12v-18.75c0-2.65-1.37-3.98-4.1-3.98-1.25,0-2.37.26-3.38.78-1,.52-1.83,1.3-2.47,2.34v19.62h-12.06v-30.87ZM480.37,178.4h12.06l3.2,15.18,4.16-15.18h8.5l4.16,15.18,3.2-15.18h12.12l-8.98,30.87h-10.31l-4.46-15.23-4.34,15.23h-10.31l-8.98-30.87ZM489.11,168.13h18.75v-5.94h10.97v13.1h-29.72v-7.16ZM550.66,207.63c-2.17-1.67-3.25-4.2-3.25-7.59s1.17-6.01,3.53-7.88c2.35-1.87,5.62-2.8,9.8-2.8,1.65,0,3.37.14,5.15.43,1.79.29,3.29.68,4.49,1.18v-.75c0-1.42-.71-2.51-2.14-3.26-1.43-.75-3.57-1.13-6.42-1.13-1.97,0-3.89.2-5.76.61-1.87.4-3.57.95-5.09,1.64v-8.25c1.41-.69,3.33-1.25,5.76-1.67,2.43-.42,5.01-.63,7.75-.63,2.29,0,4.34.25,6.15.75l1.81-2.19h12.9l-5.85,6.52c2.01,2.15,3.01,4.96,3.01,8.42v18.23h-12.12v-10.68c-.84-.42-1.82-.76-2.92-1.01-1.11-.25-2.2-.38-3.29-.38-2.85,0-4.28.96-4.28,2.89s1.29,2.77,3.86,2.77c1.09,0,2.09-.19,3.01-.58v6.98c-1.81.58-4.12.87-6.93.87-3.94,0-6.99-.84-9.16-2.51ZM594.58,208.32c-2.51-1.21-4.5-3.02-5.97-5.42-1.47-2.4-2.2-5.32-2.2-8.74s.58-6.5,1.75-9c1.17-2.5,2.76-4.39,4.79-5.68,2.03-1.29,4.33-1.93,6.9-1.93,1.45,0,2.75.24,3.92.72,1.17.48,2.09,1.11,2.77,1.88.72-.88,1.73-1.54,3.01-1.96,1.29-.42,2.73-.63,4.34-.63,2.29,0,4.3.42,6.03,1.27,1.73.85,3.06,2.03,4.01,3.55.94,1.52,1.42,3.24,1.42,5.16v21.75h-12.12v-20.25c0-1.65-.64-2.48-1.93-2.48-.76,0-1.33.22-1.69.66-.36.44-.64,1.09-.84,1.93h-4.28c-.28-1.73-1.03-2.6-2.23-2.6-1.05,0-1.87.62-2.47,1.85-.6,1.23-.9,3.15-.9,5.77,0,2.31.55,4.06,1.66,5.25,1.11,1.19,2.76,1.79,4.97,1.79,1.41,0,2.73-.25,3.98-.75v8.83c-1.81.58-3.92.87-6.33.87-3.22,0-6.08-.61-8.59-1.82ZM637.47,191.09c0-1.46-.38-2.59-1.15-3.38-.76-.79-2.03-1.18-3.8-1.18-1.89,0-3.72.44-5.49,1.33v-8.6c.92-.46,2.24-.87,3.95-1.21,1.71-.35,3.3-.52,4.79-.52,4.46,0,7.88,1.09,10.25,3.26,2.37,2.17,3.56,5.36,3.56,9.55v18.93h-12.12v-18.18ZM659.11,209.5c-2.61-.42-4.68-1.06-6.21-1.9v-8.54c1.69.96,3.67,1.75,5.94,2.37,2.27.62,4.27.92,6,.92,3.17,0,4.76-.56,4.76-1.67,0-.54-.4-.99-1.21-1.36-.8-.36-2.25-.86-4.34-1.47-1.04-.31-1.69-.5-1.93-.58-3.42-1.08-5.88-2.35-7.38-3.81-1.51-1.46-2.26-3.46-2.26-6,0-3.19,1.31-5.65,3.92-7.36,2.61-1.71,6.15-2.57,10.61-2.57,2.57,0,5.04.23,7.42.69,2.37.46,4.24,1.06,5.61,1.79v8.6c-1.25-.85-2.86-1.55-4.85-2.11-1.99-.56-3.85-.84-5.58-.84-3.13,0-4.7.6-4.7,1.79,0,.58.41,1.05,1.24,1.41.82.37,2.16.8,4.01,1.3l2.47.69c2.53.77,4.48,1.62,5.85,2.54,1.37.92,2.31,1.98,2.83,3.17.52,1.19.78,2.64.78,4.33,0,2.89-1.28,5.15-3.83,6.78-2.55,1.63-6.38,2.45-11.49,2.45-2.49,0-5.04-.21-7.66-.63ZM662.61,169.63c0-3.62,2.21-5.42,6.63-5.42h13.93v7.1h-8.38c-.92,0-1.39.42-1.39,1.27v2.71h-10.79v-5.65ZM705.05,191.67l-3.01-5.14c5.1-6,11.55-9,19.35-9,5.51,0,9.76,1.15,12.75,3.46,2.99,2.31,4.49,5.48,4.49,9.52v18.75h-12.06v-17.89c0-3.23-1.75-4.85-5.24-4.85-2.53,0-4.64.6-6.33,1.79l2.17,3.58v17.37h-12.12v-17.6ZM748.16,209.5c-2.61-.42-4.68-1.06-6.21-1.9v-8.54c1.69.96,3.67,1.75,5.94,2.37,2.27.62,4.27.92,6,.92,3.17,0,4.76-.56,4.76-1.67,0-.54-.4-.99-1.21-1.36-.8-.36-2.25-.86-4.34-1.47-1.04-.31-1.69-.5-1.93-.58-3.42-1.08-5.88-2.35-7.38-3.81-1.51-1.46-2.26-3.46-2.26-6,0-3.19,1.31-5.65,3.92-7.36,2.61-1.71,6.15-2.57,10.61-2.57,2.57,0,5.04.23,7.42.69,2.37.46,4.24,1.06,5.61,1.79v8.6c-1.25-.85-2.86-1.55-4.85-2.11-1.99-.56-3.85-.84-5.58-.84-3.13,0-4.7.6-4.7,1.79,0,.58.41,1.05,1.24,1.41.82.37,2.16.8,4.01,1.3l2.47.69c2.53.77,4.48,1.62,5.85,2.54,1.37.92,2.31,1.98,2.83,3.17.52,1.19.78,2.64.78,4.33,0,2.89-1.28,5.15-3.83,6.78-2.55,1.63-6.38,2.45-11.49,2.45-2.49,0-5.04-.21-7.66-.63ZM759.13,220.58c0-.73-.16-1.25-.48-1.56-.32-.31-.86-.46-1.63-.46h-1.69v-7.15h7.66c2.45,0,4.22.57,5.31,1.7,1.08,1.13,1.63,2.88,1.63,5.22v7.39h-10.79v-5.14ZM740.44,169.63c0-2.27.63-4.14,1.9-5.6,1.27-1.46,2.92-2.19,4.97-2.19,1.25,0,2.24.19,2.98.58.74.39,1.36.94,1.84,1.67,1.09-1.39,2.67-2.08,4.76-2.08,3.62,0,5.43,1.85,5.43,5.54v1.73h.36c.48,0,.79-.11.93-.32.14-.21.21-.57.21-1.07v-5.48h6.03v6.64c0,1.85-.63,3.35-1.9,4.5-1.27,1.15-2.92,1.73-4.97,1.73h-6.03v-4.67c0-1.04-.38-1.56-1.15-1.56-.88,0-1.33.5-1.33,1.5v1.1h-4.46v-1.04c0-1.04-.38-1.56-1.15-1.56-.96,0-1.45.83-1.45,2.48,0,.58.13,1.22.39,1.93.26.71.57,1.32.93,1.82h-6.93c-.92-1.5-1.39-3.38-1.39-5.65ZM782.34,208.4c-2.65-1.15-4.7-2.75-6.15-4.79-1.45-2.04-2.17-4.37-2.17-6.98v-18.23h12.06v17.02c0,1.92.42,3.37,1.27,4.33.84.96,2.25,1.44,4.22,1.44s3.33-.48,4.19-1.44c.86-.96,1.3-2.4,1.3-4.33v-27.35h12.12v28.56c0,2.62-.72,4.94-2.17,6.98-1.45,2.04-3.51,3.64-6.18,4.79-2.67,1.15-5.76,1.73-9.25,1.73s-6.57-.58-9.22-1.73ZM830.93,192.31h12l2.29,8.71c1.04,0,2.06-.28,3.04-.84.98-.56,1.79-1.38,2.41-2.45.62-1.08.93-2.35.93-3.81,0-2.42-.75-4.27-2.26-5.54s-4.19-1.9-8.05-1.9c-1.77,0-3.68.19-5.73.58-2.05.38-3.7.89-4.94,1.5v-8.89c1.69-.65,3.69-1.17,6-1.56,2.31-.38,4.63-.58,6.96-.58,6.63,0,11.71,1.39,15.22,4.18,3.52,2.79,5.28,6.78,5.28,11.97,0,3.19-.81,5.97-2.44,8.34-1.63,2.37-3.83,4.16-6.6,5.4-2.77,1.23-5.81,1.85-9.1,1.85h-10.61l-4.4-16.96ZM852.69,174.82c-1.21-.65-2.16-1.56-2.86-2.71-.7-1.15-1.05-2.4-1.05-3.75s.35-2.65,1.05-3.81c.7-1.15,1.66-2.07,2.86-2.74,1.21-.67,2.51-1.01,3.92-1.01s2.71.34,3.92,1.01c1.21.67,2.16,1.59,2.86,2.74.7,1.15,1.06,2.42,1.06,3.81s-.35,2.6-1.06,3.75c-.7,1.15-1.66,2.06-2.86,2.71-1.21.65-2.51.98-3.92.98s-2.71-.33-3.92-.98ZM858.09,169.86c.42-.42.63-.9.63-1.44,0-.58-.2-1.07-.6-1.47-.4-.4-.9-.61-1.51-.61s-1.1.2-1.51.61c-.4.4-.6.89-.6,1.47s.2,1.07.6,1.47c.4.4.9.61,1.51.61.56,0,1.06-.21,1.48-.63ZM875,191.09c0-1.46-.38-2.59-1.15-3.38-.76-.79-2.03-1.18-3.8-1.18-1.89,0-3.72.44-5.49,1.33v-8.6c.92-.46,2.24-.87,3.95-1.21,1.71-.35,3.3-.52,4.79-.52,4.46,0,7.88,1.09,10.25,3.26,2.37,2.17,3.56,5.36,3.56,9.55v18.93h-12.12v-18.18ZM892.72,191.67l-3.01-5.14c5.1-6,11.55-9,19.35-9,5.51,0,9.76,1.15,12.75,3.46,2.99,2.31,4.49,5.48,4.49,9.52v18.75h-12.06v-17.89c0-3.23-1.75-4.85-5.24-4.85-2.53,0-4.64.6-6.33,1.79l2.17,3.58v17.37h-12.12v-17.6ZM908.67,173.87c-1.11-.94-1.66-2.34-1.66-4.18v-6h10.79v3.23c0,.81.44,1.21,1.33,1.21h12.54v7.16h-18.09c-2.17,0-3.81-.47-4.91-1.41ZM937.46,208.43c-2.53-1.13-4.54-2.86-6.03-5.16-1.49-2.31-2.23-5.17-2.23-8.6s.8-6.65,2.41-9.23c1.61-2.58,3.9-4.54,6.87-5.89,2.97-1.35,6.49-2.02,10.55-2.02,6.47,0,11.27,1.4,14.41,4.21,3.13,2.81,4.7,6.64,4.7,11.48v16.04h-12.12v-16.1c0-2.19-.53-3.85-1.6-4.96-1.07-1.12-2.84-1.67-5.33-1.67-2.25,0-4.05.69-5.4,2.08-1.35,1.38-2.02,3.4-2.02,6.06,0,2.23.6,3.88,1.81,4.93,1.21,1.06,2.81,1.59,4.82,1.59,1.41,0,2.73-.25,3.98-.75v8.83c-1.81.58-3.92.87-6.33.87-3.13,0-5.97-.57-8.5-1.7ZM316.12,231.8h17.71c4.62,0,8.3,1.14,11.03,3.42,2.73,2.28,4.1,5.53,4.1,9.77s-1.37,7.5-4.1,9.8c-2.73,2.3-6.41,3.44-11.03,3.44h-6.33v10.59h-11.39v-37.02ZM331.69,249.54c1.76,0,3.14-.33,4.13-1.01.99-.67,1.48-1.85,1.48-3.55s-.5-2.82-1.48-3.5c-.99-.67-2.37-1.01-4.13-1.01h-4.18v9.06h4.18ZM375.15,268.9c-2.49-.48-4.51-1.1-6.05-1.88v-9.69c2.02,1.06,4.13,1.85,6.35,2.38,2.22.53,4.3.79,6.24.79,2.82,0,4.24-.72,4.24-2.17,0-.6-.21-1.12-.63-1.56-.42-.44-1.05-.86-1.9-1.27-.84-.41-2.18-1-4.02-1.77-3.56-1.48-6.13-3.11-7.73-4.87-1.6-1.76-2.39-3.95-2.39-6.57,0-2.19.63-4.14,1.9-5.85,1.27-1.71,3.03-3.04,5.31-4,2.27-.95,4.9-1.43,7.87-1.43,2.42,0,4.57.19,6.44.56,1.87.37,3.69.96,5.45,1.77v9.37c-3.19-1.69-6.45-2.54-9.79-2.54-1.47,0-2.64.2-3.52.61-.88.41-1.32,1-1.32,1.77s.39,1.4,1.18,1.88c.79.48,2.28,1.14,4.48,1.99l1.21.48c2.6,1.02,4.61,2.04,6.02,3.05,1.41,1.01,2.43,2.17,3.05,3.5.62,1.32.94,2.99.94,5,0,3.5-1.32,6.23-3.96,8.21-2.64,1.98-6.62,2.97-11.94,2.97-2.46,0-4.93-.24-7.43-.71ZM409.25,241.01h-10.34v-9.21h32.07v9.21h-10.34v27.8h-11.39v-27.8ZM441.32,231.8h10.95l15.35,37.02h-11.66l-2.86-7.04h-12.6l-2.92,7.04h-11.66l15.4-37.02ZM450.45,253.46l-3.69-10.38-3.69,10.38h7.37ZM471.36,231.8h17.88c4.62,0,8.27,1.12,10.95,3.36,2.68,2.24,4.02,5.48,4.02,9.72,0,2.75-.6,5.1-1.79,7.04-1.19,1.94-2.89,3.42-5.09,4.45l6.44,12.44h-11.66l-5.61-10.86h-3.74v10.86h-11.39v-37.02ZM486.98,249.28c1.76,0,3.13-.33,4.1-.98.97-.65,1.46-1.79,1.46-3.42s-.49-2.76-1.46-3.42c-.97-.65-2.34-.98-4.1-.98h-4.24v8.79h4.24ZM534.83,267.28c-3.19-1.55-5.65-3.78-7.37-6.67-1.72-2.89-2.59-6.32-2.59-10.27s.86-7.39,2.59-10.3c1.72-2.91,4.18-5.15,7.37-6.7,3.19-1.55,6.91-2.33,11.17-2.33,5.72,0,10.19,1.02,13.42,3.07v10.11c-1.62-1.17-3.43-2.01-5.45-2.54-2.02-.53-4.35-.79-6.99-.79-3.45,0-6.06.83-7.84,2.49-1.78,1.66-2.67,3.99-2.67,6.99s.85,5.52,2.56,7.12c1.71,1.61,4.17,2.41,7.4,2.41,1.58,0,2.86-.21,3.85-.64v-4.71h-5.28v-6.94h15.68v18.54c-3.89,2.33-8.78,3.5-14.69,3.5-4.25,0-7.98-.78-11.17-2.33ZM564.43,231.8h17.88c4.62,0,8.27,1.12,10.95,3.36,2.68,2.24,4.02,5.48,4.02,9.72,0,2.75-.6,5.1-1.79,7.04-1.19,1.94-2.89,3.42-5.09,4.45l6.44,12.44h-11.66l-5.61-10.86h-3.74v10.86h-11.39v-37.02ZM580.05,249.28c1.76,0,3.13-.33,4.1-.98.97-.65,1.46-1.79,1.46-3.42s-.49-2.76-1.46-3.42c-.97-.65-2.34-.98-4.1-.98h-4.24v8.79h4.24ZM609.28,267.17c-3.17-1.62-5.67-3.89-7.48-6.81s-2.72-6.26-2.72-10.04.91-7.13,2.72-10.06c1.82-2.93,4.31-5.21,7.48-6.83,3.17-1.62,6.7-2.44,10.59-2.44s7.4.81,10.53,2.44c3.14,1.62,5.61,3.9,7.43,6.83,1.82,2.93,2.72,6.28,2.72,10.06s-.91,7.12-2.72,10.04-4.29,5.18-7.43,6.81c-3.14,1.62-6.65,2.44-10.53,2.44s-7.42-.81-10.59-2.44ZM624.47,258.25c1.38-.72,2.47-1.77,3.27-3.12.81-1.36,1.21-2.96,1.21-4.79,0-2.72-.86-4.89-2.58-6.51-1.72-1.62-3.89-2.44-6.49-2.44s-4.83.81-6.57,2.44c-1.74,1.62-2.61,3.8-2.61,6.51,0,1.84.4,3.43,1.21,4.79.81,1.36,1.91,2.4,3.3,3.12,1.39.72,2.95,1.09,4.68,1.09s3.22-.36,4.59-1.09ZM651.94,267.44c-2.68-1.45-4.67-3.44-5.97-5.98s-1.95-5.45-1.95-8.74v-20.92h11.39v20.81c0,2.26.56,3.97,1.68,5.14,1.12,1.17,2.76,1.75,4.92,1.75s3.8-.58,4.92-1.75c1.12-1.17,1.68-2.88,1.68-5.14v-20.81h11.39v20.92c0,3.28-.65,6.2-1.95,8.74-1.3,2.54-3.29,4.54-5.97,5.98s-6.03,2.17-10.07,2.17-7.39-.72-10.07-2.17ZM684.56,231.8h17.71c4.62,0,8.3,1.14,11.03,3.42,2.73,2.28,4.1,5.53,4.1,9.77s-1.37,7.5-4.1,9.8c-2.73,2.3-6.41,3.44-11.03,3.44h-6.33v10.59h-11.39v-37.02ZM700.13,249.54c1.76,0,3.13-.33,4.12-1.01.99-.67,1.49-1.85,1.49-3.55s-.5-2.82-1.49-3.5c-.99-.67-2.37-1.01-4.12-1.01h-4.18v9.06h4.18ZM747.49,267.28c-3.19-1.55-5.65-3.78-7.37-6.67-1.72-2.89-2.58-6.32-2.58-10.27s.86-7.39,2.58-10.3c1.72-2.91,4.18-5.15,7.37-6.7,3.19-1.55,6.91-2.33,11.17-2.33,2.75,0,5.21.25,7.37.74,2.16.49,4.18,1.29,6.05,2.38v10.12c-1.61-1.2-3.43-2.07-5.45-2.6-2.02-.53-4.35-.79-6.99-.79-3.45,0-6.06.79-7.84,2.38-1.78,1.59-2.67,3.95-2.67,7.1s.92,5.52,2.75,7.12c1.83,1.61,4.42,2.41,7.76,2.41,2.6,0,4.94-.28,7.01-.85,2.07-.56,4.02-1.46,5.86-2.7v10.06c-3.56,2.15-8.18,3.23-13.86,3.23-4.25,0-7.98-.78-11.17-2.33ZM783.99,267.17c-3.17-1.62-5.67-3.89-7.48-6.81s-2.72-6.26-2.72-10.04.91-7.13,2.72-10.06c1.82-2.93,4.31-5.21,7.48-6.83,3.17-1.62,6.7-2.44,10.59-2.44s7.4.81,10.53,2.44c3.14,1.62,5.61,3.9,7.43,6.83,1.82,2.93,2.72,6.28,2.72,10.06s-.91,7.12-2.72,10.04-4.29,5.18-7.43,6.81c-3.14,1.62-6.65,2.44-10.53,2.44s-7.42-.81-10.59-2.44ZM799.17,258.25c1.38-.72,2.47-1.77,3.27-3.12.81-1.36,1.21-2.96,1.21-4.79,0-2.72-.86-4.89-2.58-6.51-1.72-1.62-3.89-2.44-6.49-2.44s-4.83.81-6.57,2.44c-1.74,1.62-2.61,3.8-2.61,6.51,0,1.84.4,3.43,1.21,4.79.81,1.36,1.91,2.4,3.3,3.12,1.39.72,2.95,1.09,4.68,1.09s3.22-.36,4.59-1.09ZM819,267.78c-.73-.69-1.1-1.54-1.1-2.57s.37-1.95,1.1-2.67c.73-.72,1.63-1.09,2.7-1.09s1.97.36,2.72,1.09c.75.72,1.13,1.62,1.13,2.67,0,.99-.38,1.84-1.13,2.54-.75.71-1.66,1.06-2.72,1.06s-1.96-.34-2.7-1.03ZM832.75,265.37h11.39l-5.94,11.39h-10.01l4.57-11.39ZM865.92,231.8h11.39v27.8h15.51v9.21h-26.9v-37.02ZM898.1,241.01h-10.34v-9.21h32.07v9.21h-10.34v27.8h-11.39v-27.8ZM922.74,231.8h14.25c4.25,0,7.97.74,11.14,2.22,3.17,1.48,5.63,3.61,7.37,6.38,1.74,2.77,2.61,6.01,2.61,9.72,0,6.14-1.89,10.79-5.67,13.95-3.78,3.16-8.97,4.74-15.57,4.74h-14.14v-37.02ZM937.71,259.6c2.82,0,5-.85,6.52-2.54,1.52-1.69,2.28-4.01,2.28-6.94,0-2.61-.77-4.78-2.31-6.51-1.54-1.73-3.65-2.59-6.33-2.59h-3.74v18.59h3.58ZM961.85,267.78c-.73-.69-1.1-1.54-1.1-2.57s.37-1.95,1.1-2.67c.73-.72,1.63-1.09,2.7-1.09s1.97.36,2.72,1.09c.75.72,1.13,1.62,1.13,2.67,0,.99-.38,1.84-1.13,2.54-.75.71-1.66,1.06-2.72,1.06s-1.96-.34-2.7-1.03Z"/>
</svg>