<svg id="Layer_1" data-name="Layer 1" xmlns="http://www.w3.org/2000/svg" viewBox="0 0 150 150"><defs><style>.cls-1{fill:#226e46;}.cls-2{fill:#fff;}.cls-2,.cls-3{fill-rule:evenodd;}.cls-3{fill:#ff0;}</style></defs><title>services - 229420409_eps</title><rect class="cls-1" x="-17.25" y="-17.25" width="184.5" height="184.5"/><path class="cls-2" d="M36,44h13.4a1.36,1.36,0,0,1,1.35,1.36v3.92a1.36,1.36,0,0,1-1.35,1.35H37.54a1,1,0,0,0-.95,1v4.21a1,1,0,0,0,.95,1h11.9a1.36,1.36,0,0,1,1.35,1.36V62a1.36,1.36,0,0,1-1.35,1.36H37.54a1,1,0,0,0-.95,1v4.2a1,1,0,0,0,.95,1h11.9a1.36,1.36,0,0,1,1.35,1.36v3.91a1.36,1.36,0,0,1-1.35,1.35H37.54a1,1,0,0,0-.95,1v4.21a1,1,0,0,0,.95,1h11.9a1.36,1.36,0,0,1,1.35,1.36v3.91a1.36,1.36,0,0,1-1.35,1.36H37.54a1,1,0,0,0-.95,1V94a1,1,0,0,0,.95,1h11.9a1.36,1.36,0,0,1,1.35,1.36v17.24H32.86a1.36,1.36,0,0,1-1.36-1.36V48.49A4.55,4.55,0,0,1,36,44Z"/><path class="cls-3" d="M59.38,26.54H90.62a4.8,4.8,0,0,1,4.79,4.79v80.85a1.36,1.36,0,0,1-1.36,1.36H85.64a1.36,1.36,0,0,1-1.36-1.36V96.62a1.52,1.52,0,0,0-1.53-1.52H67.25a1.52,1.52,0,0,0-1.53,1.52v15.56a1.36,1.36,0,0,1-1.36,1.36H56a1.36,1.36,0,0,1-1.36-1.36V31.33a4.8,4.8,0,0,1,4.79-4.79Zm3.87,7.83h6.11a1.39,1.39,0,0,1,1.53,1.21V46.09a1.39,1.39,0,0,1-1.53,1.21H63.25a1.39,1.39,0,0,1-1.53-1.21V35.58a1.39,1.39,0,0,1,1.53-1.21Zm17.39,0h6.11a1.39,1.39,0,0,1,1.53,1.21V46.09a1.39,1.39,0,0,1-1.53,1.21H80.64a1.39,1.39,0,0,1-1.53-1.21V35.58a1.39,1.39,0,0,1,1.53-1.21Zm0,38.42h6.11A1.4,1.4,0,0,1,88.28,74V84.52a1.4,1.4,0,0,1-1.53,1.21H80.64a1.4,1.4,0,0,1-1.53-1.21V74a1.4,1.4,0,0,1,1.53-1.21Zm0-19.21h6.11a1.39,1.39,0,0,1,1.53,1.21V65.3a1.4,1.4,0,0,1-1.53,1.22H80.64a1.4,1.4,0,0,1-1.53-1.22V54.79a1.39,1.39,0,0,1,1.53-1.21ZM63.25,72.79h6.11A1.4,1.4,0,0,1,70.89,74V84.52a1.4,1.4,0,0,1-1.53,1.21H63.25a1.4,1.4,0,0,1-1.53-1.21V74a1.4,1.4,0,0,1,1.53-1.21Zm0-19.21h6.11a1.39,1.39,0,0,1,1.53,1.21V65.3a1.4,1.4,0,0,1-1.53,1.22H63.25a1.4,1.4,0,0,1-1.53-1.22V54.79a1.39,1.39,0,0,1,1.53-1.21Z"/><path class="cls-2" d="M114,44h-13.4a1.36,1.36,0,0,0-1.35,1.36v3.92a1.36,1.36,0,0,0,1.35,1.35h11.9a1,1,0,0,1,1,1v4.21a1,1,0,0,1-1,1h-11.9a1.36,1.36,0,0,0-1.35,1.36V62a1.36,1.36,0,0,0,1.35,1.36h11.9a1,1,0,0,1,1,1v4.2a1,1,0,0,1-1,1h-11.9a1.36,1.36,0,0,0-1.35,1.36v3.91a1.36,1.36,0,0,0,1.35,1.35h11.9a1,1,0,0,1,1,1v4.21a1,1,0,0,1-1,1h-11.9a1.36,1.36,0,0,0-1.35,1.36v3.91a1.36,1.36,0,0,0,1.35,1.36h11.9a1,1,0,0,1,1,1V94a1,1,0,0,1-1,1h-11.9a1.36,1.36,0,0,0-1.35,1.36v17.24h17.93a1.36,1.36,0,0,0,1.36-1.36V48.49A4.55,4.55,0,0,0,114,44Z"/><path class="cls-3" d="M24.71,113.47H125.29a2.89,2.89,0,0,1,2.88,2.88v4.23a2.89,2.89,0,0,1-2.88,2.88H24.71a2.89,2.89,0,0,1-2.88-2.88v-4.23a2.89,2.89,0,0,1,2.88-2.88Z"/></svg>