<svg id="Layer_1" data-name="Layer 1" xmlns="http://www.w3.org/2000/svg" viewBox="0 0 150 150"><defs><style>.cls-1{fill:#226e46;}.cls-2{fill:#fff;}.cls-2,.cls-4{fill-rule:evenodd;}.cls-3,.cls-4{fill:#ff0;}</style></defs><title>services - 229420409_eps</title><rect class="cls-1" x="-17.25" y="-17.25" width="184.5" height="184.5"/><path class="cls-2" d="M65.67,42.76H124.2a3,3,0,0,1,3,3v58.54a3,3,0,0,1-3,3H65.67a3,3,0,0,1-3-3V65.18L66.85,65a7.38,7.38,0,0,0,2.55-.42v35.91h51.06V49.47H69.4v2.18a7.87,7.87,0,0,0-1.71-.36l-5-.83V45.73a3,3,0,0,1,3-3Z"/><path class="cls-3" d="M88.11,79.35a1.94,1.94,0,0,0-.59,1.4V94a.65.65,0,0,0,.66.66h6.76A.66.66,0,0,0,95.6,94V84.63a1.2,1.2,0,0,1,1.19-1.19h5.46a1.2,1.2,0,0,1,1.2,1.19V94a.65.65,0,0,0,.66.66h6.76a.65.65,0,0,0,.66-.66V80.75a1.89,1.89,0,0,0-.59-1.4L100.19,69.11a1,1,0,0,0-1.33,0L88.11,79.35ZM99.54,76.2a4.92,4.92,0,0,1,1.88.36.44.44,0,0,1,.27.29.43.43,0,0,1-.06.41l-1.06,1.6a.47.47,0,0,1-.5.2,2,2,0,0,0-1.06,0,.47.47,0,0,1-.5-.2l-1.06-1.6a.46.46,0,0,1,.22-.7,4.87,4.87,0,0,1,1.87-.36Zm3.62,1.52a5.09,5.09,0,0,1,1.31,2.37,1,1,0,0,1-.93,1.17h-1.73a2.19,2.19,0,0,0-.44-1.33.48.48,0,0,1,0-.55l1.06-1.59a.44.44,0,0,1,.35-.21.45.45,0,0,1,.39.14Zm-2.3,3.54H98.22a1.32,1.32,0,0,1,2.64,0Zm-3.59,0H95.54a.92.92,0,0,1-.75-.36,1,1,0,0,1-.18-.81,5.09,5.09,0,0,1,1.31-2.37.45.45,0,0,1,.39-.14.44.44,0,0,1,.35.21l1.06,1.59a.48.48,0,0,1,0,.55,2.26,2.26,0,0,0-.44,1.33Z"/><path class="cls-2" d="M86.82,78.87a1.51,1.51,0,1,1-2-2.26L98.14,63.83a1.93,1.93,0,0,1,1.34-.54,2,2,0,0,1,1.35.54l5.32,5.11V66.7a.75.75,0,0,1,.74-.75h2a.75.75,0,0,1,.74.75v5.55l4.55,4.36a1.51,1.51,0,1,1-2,2.26l-12-11.52a1,1,0,0,0-1.33,0l-12,11.52Z"/><path class="cls-4" d="M80.32,70.85v16.3h1.86a.61.61,0,0,1,.56.34.63.63,0,0,1-.06.66l-3.21,4.16a.62.62,0,0,1-1,0l-3.21-4.16a.61.61,0,0,1-.06-.66.6.6,0,0,1,.55-.34h1.87V70.85H75.77a.63.63,0,0,1-.49-1l3.21-4.16a.62.62,0,0,1,1,0l3.21,4.16a.61.61,0,0,1,.06.65.61.61,0,0,1-.56.35Z"/><path class="cls-4" d="M90.53,57.78h16.3V55.92a.63.63,0,0,1,.34-.56.63.63,0,0,1,.66.07l4.16,3.2a.59.59,0,0,1,.24.49.62.62,0,0,1-.24.5l-4.16,3.2a.63.63,0,0,1-.66.07.63.63,0,0,1-.34-.56V60.46H90.53v1.87a.62.62,0,0,1-1,.49l-4.16-3.2a.62.62,0,0,1-.24-.5.59.59,0,0,1,.24-.49l4.16-3.2a.62.62,0,0,1,1,.49v1.86Z"/><path class="cls-4" d="M38.05,35a6.1,6.1,0,0,0-6.11,6.11c0,3.38,2.17,8.61,6.11,8.61s6.11-5.23,6.11-8.61A6.1,6.1,0,0,0,38.05,35ZM33.71,51.78l-5.35,2a5.78,5.78,0,0,0-3.74,4.5L23.05,67.1a12.7,12.7,0,0,0,.24,5.75l3.1,11.46a2.92,2.92,0,0,0,2.86,2.21h.36l1.45,25.66A3,3,0,0,0,34,115h8.12a3,3,0,0,0,2.94-2.81L46.5,86.52l2.7-23.88a1.24,1.24,0,0,1,1.21-1.11L66.82,61c3.8.12,4.36-5.38.38-5.62L48.74,52.27c-1.08-.08-5-.56-6.78-.64a6.12,6.12,0,0,0-1.29,0l-1.93.44a2.65,2.65,0,0,1-1.37,0l-1.93-.44a2.86,2.86,0,0,0-1.73.12Zm2.41,2.65a10.56,10.56,0,0,0,1.85.16,6,6,0,0,0,2-.24c.26-.07.21.36.15.52a2.31,2.31,0,0,1-.35.57l-.64.84,1.16,16.29A1.74,1.74,0,0,1,40,73.73l-1.4,1.69a.61.61,0,0,1-.53.28.58.58,0,0,1-.52-.28l-1.41-1.69a1.74,1.74,0,0,1-.28-1.16L37,56.28l-.65-.84a2.38,2.38,0,0,1-.41-.62c-.05-.14-.07-.42.17-.39Z"/></svg>