<svg id="Layer_1" data-name="Layer 1" xmlns="http://www.w3.org/2000/svg" viewBox="0 0 150 150"><defs><style>.cls-1{fill:#226e46;}.cls-2{fill:#fff;}.cls-2,.cls-3{fill-rule:evenodd;}.cls-3{fill:#ff0;}</style></defs><title>services - 229420409_eps</title><rect class="cls-1" x="-17.25" y="-17.25" width="184.5" height="184.5"/><path class="cls-2" d="M45.41,74.24h0a3.6,3.6,0,0,1-1.18-.56,2.53,2.53,0,0,1-.73-1.21A20.38,20.38,0,0,1,42.8,70a17.87,17.87,0,0,1-.35-2.27,4.16,4.16,0,0,1,.12-1.67,1.55,1.55,0,0,1,.86-.88,3.57,3.57,0,0,1,.58-.07s0,0,0,0a.21.21,0,0,1,0-.2.23.23,0,0,1,.19-.1h.44a19.79,19.79,0,0,1,3.78.7,33.74,33.74,0,0,0,7.22.77,36.13,36.13,0,0,0,7.41-.77,23.2,23.2,0,0,1,3.59-.7h0a.23.23,0,0,1,.18.09.21.21,0,0,1,0,.19v0a2.23,2.23,0,0,1,.62.14,1.52,1.52,0,0,1,1,1,5.62,5.62,0,0,1,.09,2,16.37,16.37,0,0,1-.36,2.28,15.49,15.49,0,0,1-.67,2.08,2.64,2.64,0,0,1-.73,1.11,3.41,3.41,0,0,1-1.18.56l-.28.08-.15,2.32a5.58,5.58,0,0,1-1.49,3.51v4a2.42,2.42,0,0,1-1,2l-6,4.58L59,92.05c.42.25.19.81,0,1.25l-.87,2c-.21.48-.47.9-.26,1.38l.2.48,1.36,5,.29,8.57a2.25,2.25,0,0,1-2.25,2.33H53.92a2.25,2.25,0,0,1-2.25-2.33l.29-8.57,1.36-5,.13-.29c.21-.48,0-.91-.26-1.38l-1.06-2.19c-.22-.45-.42-1,0-1.26h0l2.31-1.38-5.86-4.49a2.44,2.44,0,0,1-1-2V80.73l-.44-.46a5.63,5.63,0,0,1-1.6-3.63l-.15-2.4h0ZM62,110.33l2.39-11.16a12.3,12.3,0,0,0,1.68-6.11c.08-2.28-.11-5.54-.31-8.87a.34.34,0,0,1,.2-.34.35.35,0,0,1,.4.05,14,14,0,0,0,4.44,2.67,89.4,89.4,0,0,0,9.88,2.88c2.8.68,4,1,4.92,1.61s1.4,1.7,2.23,4.59c.37,1.27.8,9.35,1.27,15a2.26,2.26,0,0,1-2.24,2.44H64.22a2.25,2.25,0,0,1-2.2-2.72Zm-39.74.28c.46-5.6.89-13.69,1.26-15,.84-2.88,1.35-3.93,2.23-4.59s2.13-.93,4.92-1.61a89.4,89.4,0,0,0,9.88-2.88A13.81,13.81,0,0,0,45,83.9a.33.33,0,0,1,.39-.05.33.33,0,0,1,.2.34c-.2,3.33-.38,6.59-.3,8.88A12.28,12.28,0,0,0,47,99.17l2.39,11.16a2.14,2.14,0,0,1-.45,1.88,2.16,2.16,0,0,1-1.74.84H24.52a2.21,2.21,0,0,1-1.66-.73,2.16,2.16,0,0,1-.58-1.71Z"/><path class="cls-3" d="M61,42.59c4.44,1.29,7.71,4.26,7.71,9.1V59a.83.83,0,0,1-.83.82H60.29a.56.56,0,0,1-.34-1,6.9,6.9,0,0,0,.47-10.45.54.54,0,0,1-.18-.41V43.13a.57.57,0,0,1,.72-.54ZM51.11,59.77H43.57a.83.83,0,0,1-.83-.82V51.69c0-4.84,3.27-7.81,7.7-9.1a.56.56,0,0,1,.5.09.52.52,0,0,1,.22.45v4.78a.57.57,0,0,1-.17.41,6.88,6.88,0,0,0,.47,10.45.56.56,0,0,1,.18.63.55.55,0,0,1-.53.37Z"/><path class="cls-2" d="M58.81,48.86a5.46,5.46,0,1,1-6.22,0V42.55A1.43,1.43,0,0,1,54,41.13h3.37a1.43,1.43,0,0,1,1.42,1.42v6.31Z"/><path class="cls-2" d="M42.17,60.7H69.24a1.24,1.24,0,1,1,0,2.47H66.7c-1.85,0-4.92,1.47-11,1.47s-8.61-1.47-11-1.47H42.17a1.24,1.24,0,1,1,0-2.47Z"/><path class="cls-2" d="M55.7,49.69a3.66,3.66,0,1,1-3.65,3.65,3.66,3.66,0,0,1,3.65-3.65Z"/><path class="cls-2" d="M94.38,37a33.36,33.36,0,0,1,0,66.71c-.55,0-1.1,0-1.65,0,0-.8-.11-1.6-.17-2.41-.11-1.46-.2-3.7-.48-5.44.76.07,1.52.1,2.3.1A25.56,25.56,0,1,0,72.79,56.63V51.69A13,13,0,0,0,71.54,46,33.2,33.2,0,0,1,94.38,37Z"/><path class="cls-3" d="M79.21,61l5.27-5.32a1.26,1.26,0,0,1,1.79,0L90,59.36a1.27,1.27,0,0,1,0,1.79l-5.27,5.32-.58-.57a.24.24,0,0,0-.35,0l-.54.54a1.26,1.26,0,0,0-.2,1.51.2.2,0,0,1,0,.23l-1.15,1.17a.21.21,0,0,1-.28,0l-5.27-5.22a.2.2,0,0,1,0-.27l1.16-1.17a.2.2,0,0,1,.23,0,1.24,1.24,0,0,0,1.51-.22l.53-.53a.25.25,0,0,0,0-.36L79.21,61Zm8.08,5.13,2.34-2.36a.66.66,0,0,1,.91,0l2.74,2.65a.5.5,0,0,1,.17.38.57.57,0,0,1-.16.39l-2.57,2.57a.54.54,0,0,1-.38.15.49.49,0,0,1-.38-.16L87.3,67a.64.64,0,0,1,0-.9ZM99.7,72.58,110.55,83a.64.64,0,0,1,0,.9l-2.89,2.92a.65.65,0,0,1-.91,0L96.19,76.09a.55.55,0,0,1,0-.76l2.74-2.75a.55.55,0,0,1,.76,0ZM87.51,54.52c1.34-1.28,3.51-3,7.24-1,1.49.78,2.47,2.23,2,2.73s-2.43-1.77-5.84,1.68a.25.25,0,0,1-.18.08.24.24,0,0,1-.18-.07l-3-3a.24.24,0,0,1,0-.36Z"/><path class="cls-3" d="M112.34,58.66a6.33,6.33,0,0,1-8.14,7.22.62.62,0,0,0-.65.15L90.47,79.11a.63.63,0,0,0-.16.65,6.31,6.31,0,0,1-1.54,6.41,6.56,6.56,0,0,1-1.45,1.09,14.69,14.69,0,0,0-3.66-1.34l3-3a.65.65,0,0,0,0-.91L84,79.35a.65.65,0,0,0-.9,0l-3.9,3.9a.64.64,0,0,1-1.08-.33,6.31,6.31,0,0,1,8.14-7.22.61.61,0,0,0,.65-.16L100,62.46a.62.62,0,0,0,.15-.65,6.33,6.33,0,0,1,7.22-8.14.65.65,0,0,1,.33,1.09l-3.89,3.89a.65.65,0,0,0,0,.91l2.66,2.66a.65.65,0,0,0,.91,0l3.89-3.89a.64.64,0,0,1,.64-.16.63.63,0,0,1,.45.49Z"/></svg>