<svg id="Layer_1" data-name="Layer 1" xmlns="http://www.w3.org/2000/svg" viewBox="0 0 150 150"><defs><style>.cls-1{fill:#226e46;}.cls-2{fill:#ff0;}.cls-2,.cls-3{fill-rule:evenodd;}.cls-3,.cls-4{fill:#fff;}</style></defs><title>services - 229420409_eps</title><rect class="cls-1" x="-17.25" y="-17.25" width="184.5" height="184.5"/><path class="cls-2" d="M34.84,58.22H39a1.52,1.52,0,0,0,1.52-1.51v-11a1.6,1.6,0,0,1,3.2,0v11a1.6,1.6,0,0,0,3.2,0V41.15a2.26,2.26,0,0,1,4.52,0V56.71a1.52,1.52,0,0,0,1.52,1.51H63.51A1.52,1.52,0,0,0,65,56.71V53.08a1.6,1.6,0,1,1,3.2,0v3.63a1.61,1.61,0,0,0,3.21,0V48.55a2.26,2.26,0,0,1,4.52,0v8.16a1.52,1.52,0,0,0,1.51,1.51h4.13a1.52,1.52,0,0,0,1.52-1.51V28.58A2.14,2.14,0,0,0,81,26.45H35.46a2.14,2.14,0,0,0-2.14,2.13V56.71a1.52,1.52,0,0,0,1.52,1.51Z"/><path class="cls-3" d="M38,61.74H94.64a4.7,4.7,0,0,1,4.68,4.69v10a4.7,4.7,0,0,1-4.68,4.69H38a4.7,4.7,0,0,1-4.69-4.69v-10A4.7,4.7,0,0,1,38,61.74Z"/><path class="cls-4" d="M102.54,69.07h5.79a8.36,8.36,0,0,1,8.35,8.34V89.74a8.38,8.38,0,0,1-8.35,8.35H76.79a2.28,2.28,0,0,0-1.61.66,2.31,2.31,0,0,0-.67,1.61v4.16a.29.29,0,0,1-.3.3H70.27a.3.3,0,0,1-.31-.3v-4.16a6.85,6.85,0,0,1,6.83-6.83h31.54a3.79,3.79,0,0,0,3.8-3.79V77.41a3.81,3.81,0,0,0-3.8-3.79h-5.79a.31.31,0,0,1-.3-.3V69.37a.3.3,0,0,1,.3-.3Z"/><path class="cls-3" d="M63.43,112.06H81a1.75,1.75,0,0,0,1.75-1.74v-.16a3.5,3.5,0,0,0-3.49-3.49H65.17a3.5,3.5,0,0,0-3.48,3.49v.16a1.74,1.74,0,0,0,1.74,1.74Z"/><path class="cls-3" d="M66.14,113.4h12.2a1,1,0,0,1,1,.95v8.24a1,1,0,0,1-1,1H66.14a1,1,0,0,1-1-1v-8.24a1,1,0,0,1,1-.95Z"/></svg>