<?xml version="1.0" encoding="utf-8"?>
<!-- Generator: Adobe Illustrator 22.0.1, SVG Export Plug-In . SVG Version: 6.00 Build 0)  -->
<svg version="1.1" id="Layer_1" xmlns="http://www.w3.org/2000/svg" xmlns:xlink="http://www.w3.org/1999/xlink" x="0px" y="0px"
	 viewBox="0 0 150 150" style="enable-background:new 0 0 150 150;" xml:space="preserve">
<style type="text/css">
	.st0{fill:#226E46;}
	.st1{fill:#FFFFFF;}
	.st2{fill:#FFD403;}
</style>
<title>services - 229420409_eps</title>
<rect x="-17.3" y="-17.3" class="st0" width="184.5" height="184.5"/>
<path class="st1" d="M36,44h13.4c0.7,0,1.4,0.6,1.3,1.4v3.9c0,0.7-0.6,1.3-1.3,1.3H37.5c-0.5,0-1,0.5-1,1v4.2c0,0.5,0.4,1,1,1h11.9
	c0.7,0,1.4,0.6,1.3,1.4V62c0,0.7-0.6,1.4-1.3,1.4H37.5c-0.5,0-1,0.5-1,1v4.2c0,0.5,0.4,1,1,1h11.9c0.7,0,1.4,0.6,1.3,1.4v3.9
	c0,0.7-0.6,1.3-1.3,1.3H37.5c-0.5,0-1,0.5-1,1v4.2c0,0.5,0.4,1,1,1h11.9c0.7,0,1.4,0.6,1.3,1.4v3.9c0,0.7-0.6,1.4-1.3,1.4H37.5
	c-0.5,0-1,0.5-1,1v4c0,0.5,0.4,1,1,1h11.9c0.7,0,1.4,0.6,1.3,1.4v20.4H32.9c-0.8,0-1.4-0.6-1.4-1.4l0,0V48.5C31.5,46,33.5,44,36,44z
	"/>
<path class="st2" d="M59.4,26.5h31.2c2.6,0,4.8,2.1,4.8,4.8v84c0,0.8-0.6,1.4-1.4,1.4l0,0h-8.4c-0.8,0-1.4-0.6-1.4-1.4l0,0V96.6
	c0-0.8-0.7-1.5-1.5-1.5c0,0,0,0,0,0H67.3c-0.8,0-1.5,0.7-1.5,1.5c0,0,0,0,0,0v18.8c0,0.8-0.6,1.4-1.4,1.4l0,0H56
	c-0.8,0-1.4-0.6-1.4-1.4l0,0v-84C54.6,28.7,56.8,26.5,59.4,26.5L59.4,26.5z"/>
<path class="st1" d="M114,44h-13.4c-0.7,0-1.4,0.6-1.3,1.4v3.9c0,0.7,0.6,1.3,1.3,1.3h11.9c0.6,0,1,0.4,1,1v4.2c0,0.6-0.4,1-1,1
	h-11.9c-0.7,0-1.4,0.6-1.3,1.4V62c0,0.7,0.6,1.4,1.3,1.4h11.9c0.6,0,1,0.4,1,1v4.2c0,0.6-0.4,1-1,1h-11.9c-0.7,0-1.4,0.6-1.3,1.4
	v3.9c0,0.7,0.6,1.3,1.3,1.3h11.9c0.6,0,1,0.4,1,1v4.2c0,0.6-0.4,1-1,1h-11.9c-0.7,0-1.4,0.6-1.3,1.4v3.9c0,0.7,0.6,1.4,1.3,1.4h11.9
	c0.6,0,1,0.4,1,1v4c0,0.6-0.4,1-1,1h-11.9c-0.7,0-1.4,0.6-1.3,1.4v20.4h17.9c0.8,0,1.4-0.6,1.4-1.4l0,0V48.5
	C118.5,46,116.5,44,114,44z"/>
<path class="st2" d="M24.7,113.5h100.6c1.6,0,2.9,1.3,2.9,2.9v4.2c0,1.6-1.3,2.9-2.9,2.9H24.7c-1.6,0-2.9-1.3-2.9-2.9v-4.2
	C21.8,114.8,23.1,113.5,24.7,113.5z"/>
<g>
	<path class="st0" d="M63.3,34.4h6.1c0.8-0.1,1.4,0.5,1.5,1.2v10.5c-0.1,0.8-0.8,1.3-1.5,1.2h-6.1c-0.8,0.1-1.4-0.5-1.5-1.2V35.6
		C61.8,34.8,62.5,34.3,63.3,34.4z"/>
	<path class="st0" d="M80.6,34.4h6.1c0.8-0.1,1.4,0.5,1.5,1.2v10.5c-0.1,0.8-0.8,1.3-1.5,1.2h-6.1c-0.8,0.1-1.4-0.5-1.5-1.2V35.6
		C79.2,34.8,79.9,34.3,80.6,34.4z"/>
	<path class="st0" d="M80.6,72.8h6.1c0.8-0.1,1.4,0.5,1.5,1.2v10.5c-0.1,0.8-0.8,1.3-1.5,1.2h-6.1c-0.8,0.1-1.4-0.5-1.5-1.2V74
		C79.2,73.2,79.9,72.7,80.6,72.8z"/>
	<path class="st0" d="M80.6,53.6h6.1c0.8-0.1,1.4,0.5,1.5,1.2v10.5c-0.1,0.8-0.8,1.3-1.5,1.2h-6.1c-0.8,0.1-1.4-0.5-1.5-1.2V54.8
		C79.2,54,79.9,53.5,80.6,53.6z"/>
	<path class="st0" d="M63.3,72.8h6.1c0.8-0.1,1.4,0.5,1.5,1.2v10.5c-0.1,0.8-0.8,1.3-1.5,1.2h-6.1c-0.8,0.1-1.4-0.5-1.5-1.2V74
		C61.8,73.2,62.5,72.7,63.3,72.8z"/>
	<path class="st0" d="M63.3,53.6h6.1c0.8-0.1,1.4,0.5,1.5,1.2v10.5c-0.1,0.8-0.8,1.3-1.5,1.2h-6.1c-0.8,0.1-1.4-0.5-1.5-1.2V54.8
		C61.8,54,62.5,53.5,63.3,53.6z"/>
</g>
</svg>
