<?xml version="1.0" encoding="utf-8"?>
<!-- Generator: Adobe Illustrator 22.0.1, SVG Export Plug-In . SVG Version: 6.00 Build 0)  -->
<svg version="1.1" id="Layer_1" xmlns="http://www.w3.org/2000/svg" xmlns:xlink="http://www.w3.org/1999/xlink" x="0px" y="0px"
	 viewBox="0 0 150 150" style="enable-background:new 0 0 150 150;" xml:space="preserve">
<style type="text/css">
	.st0{fill:#226E46;}
	.st1{fill:#FFD403;}
	.st2{fill:#FFFFFF;}
</style>
<title>services - 229420409_eps</title>
<rect x="-17.3" y="-17.3" class="st0" width="184.5" height="184.5"/>
<path class="st1" d="M34.8,58.2H39c0.8,0,1.5-0.7,1.5-1.5v-11c0-0.9,0.7-1.6,1.6-1.6c0.9,0,1.6,0.7,1.6,1.6v11
	c0,0.9,0.7,1.6,1.6,1.6c0.9,0,1.6-0.7,1.6-1.6V41.2c0-1.2,1-2.3,2.3-2.3c1.2,0,2.3,1,2.3,2.3v15.6c0,0.8,0.7,1.5,1.5,1.5h10.5
	c0.8,0,1.5-0.7,1.5-1.5v-3.6c0-0.9,0.7-1.6,1.6-1.6s1.6,0.7,1.6,1.6c0,0,0,0,0,0v3.6c0.1,0.9,0.8,1.5,1.7,1.5
	c0.8-0.1,1.4-0.7,1.5-1.5v-8.2c0-1.2,1-2.3,2.3-2.3c1.2,0,2.3,1,2.3,2.3v8.2c0,0.8,0.7,1.5,1.5,1.5h4.1c0.8,0,1.5-0.7,1.5-1.5V28.6
	c0-1.2-0.9-2.1-2.1-2.1H35.5c-1.2,0-2.1,1-2.1,2.1v28.1C33.3,57.5,34,58.2,34.8,58.2z"/>
<path class="st2" d="M38,61.7h56.6c2.6,0,4.7,2.1,4.7,4.7v10c0,2.6-2.1,4.7-4.7,4.7H38c-2.6,0-4.7-2.1-4.7-4.7v-10
	C33.3,63.8,35.4,61.7,38,61.7z"/>
<path class="st2" d="M102.5,69.1h5.8c4.6,0,8.3,3.7,8.3,8.3v12.3c0,4.6-3.7,8.3-8.3,8.3H76.8c-0.6,0-1.2,0.2-1.6,0.7
	c-0.4,0.4-0.7,1-0.7,1.6v4.2c0,0.2-0.1,0.3-0.3,0.3c0,0,0,0,0,0h-3.9c-0.2,0-0.3-0.1-0.3-0.3c0,0,0,0,0,0v-4.2
	c0-3.8,3.1-6.8,6.8-6.8h31.5c2.1,0,3.8-1.7,3.8-3.8c0,0,0,0,0,0V77.4c0-2.1-1.7-3.8-3.8-3.8h-5.8c-0.2,0-0.3-0.1-0.3-0.3v-3.9
	C102.2,69.2,102.4,69.1,102.5,69.1L102.5,69.1z"/>
<path class="st2" d="M63.4,112.1H81c1,0,1.7-0.8,1.8-1.7v-0.2c0-1.9-1.6-3.5-3.5-3.5H65.2c-1.9,0-3.5,1.6-3.5,3.5v0.2
	C61.7,111.3,62.5,112.1,63.4,112.1z"/>
<path class="st2" d="M66.1,113.4h12.2c0.5,0,1,0.4,1,0.9v8.2c0,0.6-0.4,1-1,1H66.1c-0.6,0-1-0.4-1-1v-8.2
	C65.2,113.8,65.6,113.4,66.1,113.4z"/>
</svg>
