<?xml version="1.0" encoding="utf-8"?>
<!-- Generator: Adobe Illustrator 22.0.1, SVG Export Plug-In . SVG Version: 6.00 Build 0)  -->
<svg version="1.1" id="Layer_1" xmlns="http://www.w3.org/2000/svg" xmlns:xlink="http://www.w3.org/1999/xlink" x="0px" y="0px"
	 viewBox="0 0 150 150" style="enable-background:new 0 0 150 150;" xml:space="preserve">
<style type="text/css">
	.st0{fill:#226E46;}
	.st1{fill:#FFFFFF;}
	.st2{fill:#FFD403;}
</style>
<title>services - 229420409_eps</title>
<rect x="-17.3" y="-17.3" class="st0" width="184.5" height="184.5"/>
<path class="st1" d="M65.7,42.8h58.5c1.7,0,3,1.3,3,3v58.5c0,1.7-1.3,3-3,3H65.7c-1.7,0-3-1.3-3-3V65.2l4.2-0.2
	c0.9,0,1.7-0.1,2.6-0.4v35.9h51.1v-51H69.4v2.2c-0.6-0.2-1.1-0.3-1.7-0.4l-5-0.8v-4.7C62.7,44.1,64,42.7,65.7,42.8L65.7,42.8z"/>
<path class="st2" d="M88.1,79.3c-0.4,0.4-0.6,0.9-0.6,1.4V94c0,0.4,0.3,0.7,0.6,0.7c0,0,0,0,0,0h6.8c0.4,0,0.7-0.3,0.7-0.7v-9.4
	c0-0.7,0.5-1.2,1.2-1.2h5.5c0.7,0,1.2,0.5,1.2,1.2V94c0,0.4,0.3,0.7,0.6,0.7c0,0,0,0,0,0h6.8c0.4,0,0.7-0.3,0.7-0.6c0,0,0,0,0,0
	V80.8c0-0.5-0.2-1-0.6-1.4l-10.8-10.2c-0.4-0.3-1-0.3-1.3,0L88.1,79.3z M99.5,76.2c0.6,0,1.3,0.1,1.9,0.4c0.1,0,0.2,0.2,0.3,0.3
	c0.1,0.1,0,0.3-0.1,0.4l-1.1,1.6c-0.1,0.2-0.3,0.2-0.5,0.2c-0.3-0.1-0.7-0.1-1.1,0c-0.2,0-0.4,0-0.5-0.2l-1.1-1.6
	c-0.1-0.2-0.1-0.5,0.1-0.6c0,0,0.1,0,0.1-0.1C98.3,76.3,98.9,76.2,99.5,76.2z M103.2,77.7c0.6,0.7,1.1,1.5,1.3,2.4
	c0.1,0.5-0.3,1.1-0.8,1.2c0,0-0.1,0-0.1,0h-1.7c0-0.5-0.2-0.9-0.4-1.3c-0.1-0.2-0.1-0.4,0-0.6l1.1-1.6c0.1-0.1,0.2-0.2,0.3-0.2
	C102.9,77.6,103.1,77.6,103.2,77.7L103.2,77.7z M100.9,81.3h-2.6c0-0.7,0.6-1.3,1.3-1.3C100.3,79.9,100.9,80.5,100.9,81.3z
	 M97.3,81.3h-1.7c-0.3,0-0.6-0.1-0.8-0.4c-0.2-0.2-0.2-0.5-0.2-0.8c0.2-0.9,0.7-1.7,1.3-2.4c0.1-0.1,0.2-0.2,0.4-0.1
	c0.1,0,0.3,0.1,0.3,0.2l1.1,1.6c0.1,0.2,0.1,0.4,0,0.6C97.4,80.3,97.3,80.8,97.3,81.3L97.3,81.3z"/>
<path class="st1" d="M86.8,78.9c-0.6,0.6-1.6,0.6-2.1-0.1s-0.6-1.6,0.1-2.1c0,0,0.1-0.1,0.1-0.1l13.3-12.8c0.4-0.3,0.8-0.5,1.3-0.5
	c0.5,0,1,0.2,1.3,0.5l5.3,5.1v-2.2c0-0.4,0.3-0.7,0.7-0.8h2c0.4,0,0.7,0.3,0.7,0.8v5.6l4.6,4.4c0.6,0.5,0.7,1.5,0.2,2.1
	c-0.5,0.6-1.5,0.7-2.1,0.2c0,0-0.1,0-0.1-0.1l-12-11.5c-0.4-0.3-1-0.3-1.3,0L86.8,78.9L86.8,78.9z"/>
<path class="st2" d="M80.3,70.8v16.3h1.9c0.2,0,0.5,0.1,0.6,0.3c0.1,0.2,0.1,0.5-0.1,0.7l-3.2,4.2c-0.2,0.3-0.6,0.3-0.9,0.1
	c-0.1,0-0.1-0.1-0.1-0.1l-3.2-4.2c-0.1-0.2-0.2-0.4-0.1-0.7c0.1-0.2,0.3-0.3,0.6-0.3h1.9V70.8h-1.9c-0.3,0-0.6-0.3-0.6-0.6
	c0-0.1,0-0.2,0.1-0.4l3.2-4.2c0.2-0.3,0.6-0.3,0.9-0.1c0.1,0,0.1,0.1,0.1,0.1l3.2,4.2c0.1,0.2,0.2,0.4,0.1,0.7
	c-0.1,0.2-0.3,0.4-0.6,0.3L80.3,70.8z"/>
<path class="st2" d="M90.5,57.8h16.3v-1.9c0-0.2,0.1-0.5,0.3-0.6c0.2-0.1,0.5-0.1,0.7,0.1l4.2,3.2c0.2,0.1,0.2,0.3,0.2,0.5
	c0,0.2-0.1,0.4-0.2,0.5l-4.2,3.2c-0.2,0.1-0.4,0.2-0.7,0.1c-0.2-0.1-0.3-0.3-0.3-0.6v-1.9H90.5v1.9c0,0.3-0.3,0.6-0.6,0.6
	c-0.1,0-0.3,0-0.4-0.1l-4.2-3.2c-0.2-0.1-0.2-0.3-0.2-0.5c0-0.2,0.1-0.4,0.2-0.5l4.2-3.2c0.3-0.2,0.7-0.2,0.9,0.1
	c0.1,0.1,0.1,0.2,0.1,0.4V57.8z"/>
<path class="st2" d="M38,35c-3.4,0-6.1,2.7-6.1,6.1c0,0,0,0,0,0c0,3.4,2.2,8.6,6.1,8.6s6.1-5.2,6.1-8.6C44.2,37.7,41.4,35,38,35
	C38.1,35,38.1,35,38,35z M33.7,51.8l-5.4,2c-2,0.7-3.4,2.4-3.7,4.5L23,67.1c-0.4,1.9-0.3,3.9,0.2,5.8l3.1,11.5
	c0.3,1.3,1.5,2.2,2.9,2.2h0.4l1.5,25.7c0.1,1.6,1.4,2.8,2.9,2.8h8.1c1.6,0,2.8-1.3,2.9-2.8l1.4-25.7l2.7-23.9
	c0.1-0.6,0.6-1.1,1.2-1.1L66.8,61c3.8,0.1,4.4-5.4,0.4-5.6l-18.5-3.1c-1.1-0.1-5-0.6-6.8-0.6c-0.4,0-0.9,0-1.3,0l-1.9,0.4
	c-0.4,0.1-0.9,0.1-1.4,0l-1.9-0.4C34.9,51.5,34.3,51.5,33.7,51.8L33.7,51.8z M36.1,54.4c0.6,0.1,1.2,0.2,1.8,0.2c0.7,0,1.4,0,2-0.2
	c0.3-0.1,0.2,0.4,0.2,0.5c-0.1,0.2-0.2,0.4-0.3,0.6l-0.6,0.8l1.2,16.3c0,0.4-0.1,0.8-0.3,1.2l-1.4,1.7c-0.1,0.2-0.3,0.3-0.5,0.3
	c-0.2,0-0.4-0.1-0.5-0.3l-1.4-1.7c-0.2-0.3-0.3-0.8-0.3-1.2L37,56.3l-0.7-0.8c-0.2-0.2-0.3-0.4-0.4-0.6
	C35.9,54.7,35.9,54.4,36.1,54.4L36.1,54.4z"/>
</svg>
