<?xml version="1.0" encoding="utf-8"?>
<!-- Generator: Adobe Illustrator 22.0.1, SVG Export Plug-In . SVG Version: 6.00 Build 0)  -->
<svg version="1.1" id="Layer_1" xmlns="http://www.w3.org/2000/svg" xmlns:xlink="http://www.w3.org/1999/xlink" x="0px" y="0px"
	 viewBox="0 0 150 150" style="enable-background:new 0 0 150 150;" xml:space="preserve">
<style type="text/css">
	.st0{fill:#226E46;}
	.st1{fill:#FFFFFF;}
	.st2{fill:#FFD403;}
</style>
<title>services - 229420409_eps</title>
<rect x="-17.3" y="-17.3" class="st0" width="184.5" height="184.5"/>
<path class="st1" d="M45.4,74.2L45.4,74.2c-0.4-0.1-0.8-0.3-1.2-0.6c-0.4-0.3-0.6-0.7-0.7-1.2c-0.3-0.8-0.5-1.6-0.7-2.5
	c-0.2-0.7-0.3-1.5-0.3-2.3c-0.1-0.6,0-1.1,0.1-1.7c0.2-0.4,0.5-0.7,0.9-0.9c0.2,0,0.4-0.1,0.6-0.1l0,0c0-0.1,0-0.1,0-0.2
	c0-0.1,0.1-0.1,0.2-0.1h0.4c1.3,0.1,2.5,0.3,3.8,0.7c2.4,0.5,4.8,0.8,7.2,0.8c2.5,0,5-0.3,7.4-0.8c1.2-0.3,2.4-0.6,3.6-0.7l0,0
	c0.1,0,0.1,0,0.2,0.1c0,0.1,0,0.1,0,0.2l0,0c0.2,0,0.4,0.1,0.6,0.1c0.5,0.1,0.9,0.5,1,1c0.1,0.7,0.2,1.3,0.1,2
	c-0.1,0.8-0.2,1.5-0.4,2.3c-0.2,0.7-0.4,1.4-0.7,2.1c-0.1,0.4-0.4,0.8-0.7,1.1c-0.4,0.3-0.8,0.5-1.2,0.6l-0.3,0.1l-0.2,2.3
	c-0.1,1.3-0.6,2.6-1.5,3.5v4c0,0.8-0.4,1.5-1,2l-6,4.6l2.3,1.3c0.4,0.3,0.2,0.8,0,1.3l-0.9,2c-0.2,0.5-0.5,0.9-0.3,1.4l0.2,0.5
	l1.4,5l0.3,8.6c0,1.2-0.9,2.3-2.2,2.3c0,0-0.1,0-0.1,0h-3.6c-1.2,0-2.3-1-2.3-2.2c0,0,0-0.1,0-0.1l0.3-8.6l1.4-5l0.1-0.3
	c0.2-0.5,0-0.9-0.3-1.4l-1.1-2.2c-0.2-0.4-0.4-1,0-1.3l0,0l2.3-1.4l-5.9-4.5c-0.6-0.5-1-1.2-1-2v-3.4l-0.4-0.5c-1-1-1.5-2.3-1.6-3.6
	L45.4,74.2L45.4,74.2L45.4,74.2z M62,110.3l2.4-11.2c1.1-1.9,1.7-4,1.7-6.1c0.1-2.3-0.1-5.5-0.3-8.9c0-0.1,0.1-0.3,0.2-0.3
	c0.1-0.1,0.3,0,0.4,0.1c1.3,1.2,2.8,2.1,4.4,2.7c3.2,1.1,6.5,2.1,9.9,2.9c2.8,0.7,4,1,4.9,1.6s1.4,1.7,2.2,4.6
	c0.4,1.3,0.8,9.3,1.3,15c0.1,1.2-0.8,2.3-2.1,2.4c-0.1,0-0.1,0-0.2,0H64.2c-1.2,0-2.2-1-2.2-2.3C62,110.7,62,110.5,62,110.3
	L62,110.3z M22.3,110.6c0.5-5.6,0.9-13.7,1.3-15c0.8-2.9,1.4-3.9,2.2-4.6s2.1-0.9,4.9-1.6c3.3-0.8,6.6-1.7,9.9-2.9
	c1.6-0.6,3.1-1.5,4.5-2.6c0.1-0.1,0.3-0.1,0.4-0.1c0.1,0.1,0.2,0.2,0.2,0.3c-0.2,3.3-0.4,6.6-0.3,8.9c0,2.1,0.6,4.3,1.7,6.1
	l2.4,11.2c0.2,0.7,0,1.4-0.5,1.9c-0.4,0.5-1.1,0.8-1.7,0.8H24.5c-0.6,0-1.2-0.3-1.7-0.7C22.4,111.9,22.2,111.2,22.3,110.6
	L22.3,110.6z"/>
<path class="st2" d="M61,42.6c4.4,1.3,7.7,4.3,7.7,9.1V59c0,0.5-0.4,0.8-0.8,0.8h-7.6c-0.3,0-0.6-0.3-0.6-0.6c0-0.2,0.1-0.3,0.2-0.4
	c3-2.4,3.5-6.7,1.2-9.7c-0.2-0.3-0.4-0.5-0.7-0.8c-0.1-0.1-0.2-0.3-0.2-0.4v-4.8c0-0.3,0.3-0.6,0.6-0.6C60.9,42.6,60.9,42.6,61,42.6
	L61,42.6z M51.1,59.8h-7.5c-0.5,0-0.8-0.4-0.8-0.8v-7.3c0-4.8,3.3-7.8,7.7-9.1c0.2-0.1,0.4,0,0.5,0.1c0.1,0.1,0.2,0.3,0.2,0.5v4.8
	c0,0.2-0.1,0.3-0.2,0.4c-2.8,2.6-2.9,6.9-0.3,9.7c0.2,0.3,0.5,0.5,0.8,0.7c0.2,0.1,0.3,0.4,0.2,0.6C51.6,59.6,51.3,59.8,51.1,59.8z"
	/>
<path class="st1" d="M58.8,48.9c2.5,1.7,3.1,5.1,1.4,7.6c-1.7,2.5-5.1,3.1-7.6,1.4s-3.1-5.1-1.4-7.6c0.4-0.5,0.8-1,1.4-1.4v-6.3
	c0-0.8,0.6-1.4,1.4-1.4h3.4c0.8,0,1.4,0.6,1.4,1.4L58.8,48.9L58.8,48.9z"/>
<path class="st1" d="M42.2,60.7h27.1c0.7-0.1,1.3,0.4,1.3,1.1s-0.4,1.3-1.1,1.3c-0.1,0-0.1,0-0.2,0h-2.5c-1.8,0-4.9,1.5-11,1.5
	s-8.6-1.5-11-1.5h-2.5c-0.7,0.1-1.3-0.4-1.3-1.1s0.4-1.3,1.1-1.3C42,60.7,42.1,60.7,42.2,60.7z"/>
<path class="st1" d="M55.7,49.7c2,0,3.7,1.6,3.7,3.7S57.7,57,55.7,57s-3.7-1.6-3.7-3.7c0,0,0,0,0,0C52.1,51.3,53.7,49.7,55.7,49.7z"
	/>
<path class="st1" d="M94.4,37c18.4,0.3,33.1,15.5,32.8,33.9c-0.3,18-14.8,32.5-32.8,32.8c-0.6,0-1.1,0-1.7,0c0-0.8-0.1-1.6-0.2-2.4
	c-0.1-1.5-0.2-3.7-0.5-5.4c0.8,0.1,1.5,0.1,2.3,0.1c14.1,0,25.5-11.5,25.5-25.6s-11.5-25.5-25.6-25.5c-8.7,0-16.8,4.5-21.5,11.8
	v-4.9c0-2-0.4-3.9-1.3-5.7C77.7,40.2,85.9,37,94.4,37z"/>
<path class="st2" d="M79.2,61l5.3-5.3c0.5-0.5,1.3-0.5,1.8,0c0,0,0,0,0,0l3.7,3.7c0.5,0.5,0.5,1.3,0,1.8l-5.3,5.3l-0.6-0.6
	c-0.1-0.1-0.2-0.1-0.3,0c0,0,0,0,0,0l-0.5,0.5c-0.4,0.4-0.5,1-0.2,1.5c0,0.1,0,0.2,0,0.2l-1.2,1.2c-0.1,0.1-0.2,0.1-0.3,0l-5.3-5.2
	c-0.1-0.1-0.1-0.2,0-0.3l1.2-1.2c0.1,0,0.2,0,0.2,0c0.5,0.3,1.1,0.2,1.5-0.2l0.5-0.5c0.1-0.1,0.1-0.3,0-0.4c0,0,0,0,0,0L79.2,61z
	 M87.3,66.1l2.3-2.4c0.3-0.2,0.7-0.2,0.9,0l2.7,2.7c0.1,0.1,0.2,0.2,0.2,0.4c0,0.1-0.1,0.3-0.2,0.4l-2.6,2.6
	c-0.1,0.1-0.2,0.2-0.4,0.2c-0.1,0-0.3-0.1-0.4-0.2L87.3,67C87.1,66.8,87.1,66.3,87.3,66.1L87.3,66.1z M99.7,72.6L110.6,83
	c0.2,0.2,0.2,0.7,0,0.9l-2.9,2.9c-0.3,0.2-0.7,0.2-0.9,0L96.2,76.1c-0.2-0.2-0.2-0.5,0-0.8l2.7-2.8C99.1,72.4,99.5,72.4,99.7,72.6
	L99.7,72.6z M87.5,54.5c1.3-1.3,3.5-3,7.2-1c1.5,0.8,2.5,2.2,2,2.7s-2.4-1.8-5.8,1.7c0,0.1-0.1,0.1-0.2,0.1c-0.1,0-0.1,0-0.2-0.1
	l-3-3C87.5,54.9,87.4,54.7,87.5,54.5C87.5,54.6,87.5,54.6,87.5,54.5L87.5,54.5z"/>
<path class="st2" d="M112.3,58.7c0.7,3.4-1.6,6.7-5,7.4c-1,0.2-2.1,0.1-3.1-0.2c-0.2-0.1-0.5,0-0.7,0.2L90.5,79.1
	c-0.2,0.2-0.2,0.4-0.2,0.7c0.7,2.3,0.1,4.7-1.5,6.4c-0.4,0.4-0.9,0.8-1.4,1.1c-1.2-0.6-2.4-1.1-3.7-1.3l3-3c0.2-0.3,0.2-0.7,0-0.9
	L84,79.3c-0.3-0.2-0.6-0.2-0.9,0l-3.9,3.9c-0.3,0.2-0.7,0.2-0.9,0c-0.1-0.1-0.2-0.2-0.2-0.3c-0.7-3.4,1.6-6.7,5-7.4
	c1.1-0.2,2.1-0.1,3.2,0.2c0.2,0.1,0.5,0,0.7-0.2L100,62.5c0.2-0.2,0.2-0.4,0.2-0.7c-1.1-3.3,0.8-6.9,4.1-8c1-0.3,2.1-0.4,3.1-0.2
	c0.4,0.1,0.6,0.4,0.5,0.8c0,0.1-0.1,0.2-0.2,0.3l-3.9,3.9c-0.2,0.3-0.2,0.7,0,0.9l2.7,2.7c0.3,0.2,0.7,0.2,0.9,0l3.9-3.9
	c0.2-0.2,0.4-0.2,0.6-0.2C112.1,58.2,112.3,58.4,112.3,58.7L112.3,58.7z"/>
</svg>
